<svg version="1.1"
	 xmlns="http://www.w3.org/2000/svg" xmlns:xlink="http://www.w3.org/1999/xlink" xmlns:a="http://ns.adobe.com/AdobeSVGViewerExtensions/3.0/"
	 x="0px" y="0px" width="58px" height="20px" viewBox="0 0 58 21" enable-background="new 0 0 58 20" xml:space="preserve">
	<defs>
	  <filter id="dropshadow">
	    <feGaussianBlur in="SourceAlpha" stdDeviation="0"/>
	    <feOffset dx="0" dy="1" result="offsetblur"/>
	    <feFlood flood-color="#000000"/>
	    <feComposite in2="offsetblur" operator="in"/>
	    <feComponentTransfer>
	      <feFuncA type="linear" slope="0.25"/>
	    </feComponentTransfer>
	    <feMerge>
	      <feMergeNode/>
	      <feMergeNode in="SourceGraphic"/>
	    </feMerge>
	  </filter>
	</defs>

<rect fill="none" width="58" height="20"/>
<g fill="#f3f3f3" filter="url(#dropshadow)">
	<path d="M14.6,3.2l1,3.7h-2.2L14.6,3.2z M12.7,9.6l-0.9,3.1h5.5l-0.9-3.1H12.7z M27.2,1H16.6v3.3h3.3v8.4h5.4
	c-0.3-0.2-2.6-2-2.6-5.4C22.7,4.5,24.4,1.7,27.2,1 M29,9.7c1.3,0,2.3-1,2.3-2.4c0-1.3-0.9-2.5-2.2-2.5c-1.3,0-2.3,1.2-2.3,2.5
	C26.8,8.7,27.7,9.7,29,9.7 M40.2,8.4L38,1h-5.5v11.7h3.4V5.4h0l2.1,7.3h5.6V1h-3.5L40.2,8.4L40.2,8.4z M7.4,12.7l1-3.3H4.7v-1
	h4l0.9-3.1H4.7v-1H10L11,1H0.8v11.7H7.4z"/>
	<path d="M11.4,15.9H12c0.3,0,0.5,0.1,0.7,0.2c0.1,0.1,0.2,0.3,0.2,0.5c0,0.2-0.1,0.5-0.3,0.6c-0.2,0.2-0.5,0.3-0.9,0.3h-0.4
	l-0.2,0.9h-0.3L11.4,15.9z M12,16.2h-0.4l-0.3,1.1h0.4c0.3,0,0.5-0.1,0.7-0.2c0.1-0.1,0.2-0.3,0.2-0.5c0-0.1,0-0.2-0.1-0.3
	C12.4,16.2,12.2,16.2,12,16.2z"/>
	<path d="M14.6,17.3c0,0.3-0.1,0.7-0.4,0.9c-0.2,0.2-0.4,0.3-0.6,0.3c-0.4,0-0.7-0.3-0.7-0.8c0-0.3,0.1-0.7,0.4-0.9
	c0.2-0.2,0.4-0.3,0.6-0.3C14.4,16.5,14.6,16.8,14.6,17.3z M14.1,18.1c0.2-0.2,0.3-0.5,0.3-0.7c0-0.4-0.2-0.6-0.5-0.6
	c-0.2,0-0.3,0.1-0.4,0.2c-0.2,0.2-0.3,0.5-0.3,0.7c0,0.4,0.2,0.6,0.5,0.6C13.8,18.2,14,18.2,14.1,18.1z"/>
	<path d="M15,16.5h0.3l0,1.5l0.8-1.5h0.2l0.1,1.5l0.8-1.5h0.3l-1,1.9h-0.2L16.2,17l-0.8,1.5h-0.2L15,16.5z"/>
	<path d="M17.8,17.6c0,0,0,0.1,0,0.1c0,0.3,0.2,0.5,0.5,0.5c0.2,0,0.3-0.1,0.5-0.2l0.1,0.2c-0.2,0.1-0.4,0.2-0.6,0.2
	c-0.4,0-0.7-0.3-0.7-0.8c0-0.3,0.1-0.7,0.4-0.9c0.2-0.2,0.4-0.3,0.6-0.3c0.4,0,0.6,0.3,0.6,0.7c0,0.1,0,0.3-0.1,0.4H17.8z
	M17.8,17.4h1c0-0.1,0-0.1,0-0.2c0-0.2-0.1-0.4-0.4-0.4c-0.2,0-0.3,0.1-0.4,0.2C17.9,17,17.8,17.2,17.8,17.4z"/>
	<path d="M19.7,16.5H20L19.9,17c0.2-0.3,0.4-0.5,0.7-0.4l-0.1,0.3h0c-0.4,0-0.7,0.2-0.8,0.7l-0.2,0.9h-0.3L19.7,16.5z"/>
	<path d="M21,16.5h0.3l-0.5,1.9h-0.3L21,16.5z M21.1,15.9h0.3l-0.1,0.3h-0.3L21.1,15.9z"/>
	<path d="M21.8,16.5h0.3L22,16.8c0.1-0.2,0.3-0.3,0.6-0.3c0.3,0,0.5,0.2,0.5,0.5c0,0.1,0,0.2,0,0.3l-0.3,1.1h-0.3l0.3-1.1
	c0-0.1,0-0.2,0-0.2c0-0.2-0.1-0.3-0.3-0.3c-0.3,0-0.5,0.2-0.6,0.5l-0.3,1.1h-0.3L21.8,16.5z"/>
	<path d="M23.2,18.7l0.1-0.2c0.2,0.1,0.4,0.2,0.6,0.2c0.2,0,0.3-0.1,0.4-0.2c0.1-0.1,0.2-0.2,0.2-0.4l0.1-0.2
	c-0.2,0.2-0.4,0.3-0.6,0.3c-0.3,0-0.6-0.2-0.6-0.7c0-0.3,0.1-0.6,0.3-0.9c0.2-0.2,0.4-0.3,0.6-0.3c0.3,0,0.5,0.2,0.6,0.4l0.1-0.4
	h0.3l-0.4,1.7c-0.1,0.3-0.1,0.4-0.3,0.5C24.5,18.9,24.3,19,24,19C23.7,19,23.4,18.9,23.2,18.7z M24.6,17.9
	c0.1-0.1,0.3-0.4,0.3-0.6c0-0.3-0.2-0.5-0.5-0.5c-0.2,0-0.3,0.1-0.4,0.2c-0.2,0.2-0.3,0.4-0.3,0.7c0,0.3,0.2,0.5,0.4,0.5
	C24.3,18.1,24.5,18,24.6,17.9z"/>
	<path d="M26.9,15.9h0.8c0.5,0,0.7,0.2,0.7,0.6c0,0.4-0.3,0.6-0.6,0.7c0.2,0.1,0.4,0.2,0.4,0.5c0,0.5-0.4,0.8-1,0.8h-0.9
	L26.9,15.9z M27.2,18.2c0.4,0,0.7-0.2,0.7-0.5c0-0.2-0.2-0.4-0.5-0.4h-0.6l-0.2,0.9H27.2z M27.4,17c0.4,0,0.7-0.2,0.7-0.5
	c0-0.2-0.2-0.4-0.5-0.4h-0.5L26.9,17H27.4z"/>
	<path d="M28.6,18c0-0.1,0-0.2,0-0.3l0.3-1.1h0.3l-0.3,1.1c0,0.1,0,0.2,0,0.2c0,0.2,0.1,0.3,0.3,0.3c0.3,0,0.5-0.2,0.6-0.6
	l0.3-1.1h0.3l-0.5,1.9h-0.3l0.1-0.3c-0.1,0.2-0.3,0.3-0.6,0.3C28.8,18.5,28.6,18.3,28.6,18z"/>
	<path d="M30.3,18.1l0.2-0.2c0.2,0.2,0.3,0.3,0.5,0.3c0.2,0,0.4-0.1,0.4-0.3c0-0.1-0.1-0.2-0.3-0.4c-0.3-0.2-0.4-0.3-0.4-0.5
	c0-0.3,0.2-0.5,0.6-0.5c0.2,0,0.5,0.1,0.6,0.3L31.7,17c-0.2-0.2-0.3-0.2-0.5-0.2c-0.2,0-0.3,0.1-0.3,0.3c0,0.1,0.1,0.2,0.3,0.4
	c0.3,0.2,0.4,0.3,0.4,0.5c0,0.3-0.3,0.5-0.6,0.5C30.7,18.5,30.5,18.4,30.3,18.1z"/>
	<path d="M32.4,16.5h0.3l-0.5,1.9h-0.3L32.4,16.5z M32.6,15.9h0.3l-0.1,0.3h-0.3L32.6,15.9z"/>
	<path d="M33.2,16.5h0.3l-0.1,0.3c0.1-0.2,0.3-0.3,0.6-0.3c0.3,0,0.5,0.2,0.5,0.5c0,0.1,0,0.2,0,0.3l-0.3,1.1h-0.3l0.3-1.1
	c0-0.1,0-0.2,0-0.2c0-0.2-0.1-0.3-0.3-0.3c-0.3,0-0.5,0.2-0.6,0.5L33,18.4h-0.3L33.2,16.5z"/>
	<path d="M35.1,17.6c0,0,0,0.1,0,0.1c0,0.3,0.2,0.5,0.5,0.5c0.2,0,0.3-0.1,0.5-0.2l0.1,0.2c-0.2,0.1-0.4,0.2-0.6,0.2
	c-0.4,0-0.7-0.3-0.7-0.8c0-0.3,0.1-0.7,0.4-0.9c0.2-0.2,0.4-0.3,0.6-0.3c0.4,0,0.6,0.3,0.6,0.7c0,0.1,0,0.3-0.1,0.4H35.1z
	M35.1,17.4h1c0-0.1,0-0.1,0-0.2c0-0.2-0.1-0.4-0.4-0.4c-0.2,0-0.3,0.1-0.4,0.2C35.2,17,35.2,17.2,35.1,17.4z"/>
	<path d="M36.5,18.1l0.2-0.2c0.2,0.2,0.3,0.3,0.5,0.3c0.2,0,0.4-0.1,0.4-0.3c0-0.1-0.1-0.2-0.3-0.4c-0.3-0.2-0.4-0.3-0.4-0.5
	c0-0.3,0.2-0.5,0.6-0.5c0.2,0,0.5,0.1,0.6,0.3L37.9,17c-0.2-0.2-0.3-0.2-0.5-0.2c-0.2,0-0.3,0.1-0.3,0.3c0,0.1,0.1,0.2,0.3,0.4
	c0.3,0.2,0.4,0.3,0.4,0.5c0,0.3-0.3,0.5-0.6,0.5C36.9,18.5,36.7,18.4,36.5,18.1z"/>
	<path d="M38,18.1l0.2-0.2c0.2,0.2,0.3,0.3,0.5,0.3c0.2,0,0.4-0.1,0.4-0.3c0-0.1-0.1-0.2-0.3-0.4c-0.3-0.2-0.4-0.3-0.4-0.5
	c0-0.3,0.2-0.5,0.6-0.5c0.2,0,0.5,0.1,0.6,0.3L39.4,17c-0.2-0.2-0.3-0.2-0.5-0.2c-0.2,0-0.3,0.1-0.3,0.3c0,0.1,0.1,0.2,0.3,0.4
	c0.3,0.2,0.4,0.3,0.4,0.5c0,0.3-0.3,0.5-0.6,0.5C38.4,18.5,38.2,18.4,38,18.1z"/>
	<path d="M40.9,15.9h0.3l0.1,2.1l1.1-2.1h0.2l0.1,2.1l1.1-2.1h0.3l-1.4,2.6h-0.2l-0.1-2.1l-1.1,2.1H41L40.9,15.9z"/>
	<path d="M45.6,17.3c0,0.3-0.1,0.7-0.4,0.9c-0.2,0.2-0.4,0.3-0.6,0.3c-0.4,0-0.7-0.3-0.7-0.8c0-0.3,0.1-0.7,0.4-0.9
	c0.2-0.2,0.4-0.3,0.6-0.3C45.3,16.5,45.6,16.8,45.6,17.3z M45,18.1c0.2-0.2,0.3-0.5,0.3-0.7c0-0.4-0.2-0.6-0.5-0.6
	c-0.2,0-0.3,0.1-0.4,0.2c-0.2,0.2-0.3,0.5-0.3,0.7c0,0.4,0.2,0.6,0.5,0.6C44.8,18.2,44.9,18.2,45,18.1z"/>
	<path d="M46.2,16.5h0.3L46.4,17c0.2-0.3,0.4-0.5,0.7-0.4l-0.1,0.3h0c-0.4,0-0.7,0.2-0.8,0.7L46,18.4h-0.3L46.2,16.5z"/>
	<path d="M47.7,15.8H48l-0.6,2.6H47L47.7,15.8z"/>
	<path d="M49.2,18.1c-0.2,0.2-0.4,0.3-0.6,0.3c-0.4,0-0.6-0.3-0.6-0.8c0-0.4,0.1-0.7,0.4-1c0.2-0.2,0.4-0.2,0.6-0.2
	c0.3,0,0.5,0.2,0.6,0.4l0.3-1.1H50l-0.6,2.6h-0.3L49.2,18.1z M49.1,18.1c0.2-0.2,0.3-0.5,0.3-0.8c0-0.3-0.2-0.5-0.5-0.5
	c-0.1,0-0.3,0.1-0.4,0.2c-0.2,0.2-0.3,0.5-0.3,0.8c0,0.3,0.2,0.5,0.4,0.5C48.8,18.2,49,18.2,49.1,18.1z"/>
	<path d="M50.2,16.5h0.3l0,1.5l0.8-1.5h0.2l0.1,1.5l0.8-1.5h0.3l-1,1.9h-0.2L51.3,17l-0.8,1.5h-0.2L50.2,16.5z"/>
	<path d="M53.1,16.5h0.3l-0.5,1.9h-0.3L53.1,16.5z M53.3,15.9h0.3l-0.1,0.3h-0.3L53.3,15.9z"/>
	<path d="M54.8,18.1c-0.2,0.2-0.4,0.3-0.6,0.3c-0.4,0-0.6-0.3-0.6-0.8c0-0.4,0.1-0.7,0.4-1c0.2-0.2,0.4-0.2,0.6-0.2
	c0.3,0,0.5,0.2,0.6,0.4l0.3-1.1h0.3L55,18.4h-0.3L54.8,18.1z M54.7,18.1c0.2-0.2,0.3-0.5,0.3-0.8c0-0.3-0.2-0.5-0.5-0.5
	c-0.1,0-0.3,0.1-0.4,0.2c-0.2,0.2-0.3,0.5-0.3,0.8c0,0.3,0.2,0.5,0.4,0.5C54.5,18.2,54.6,18.2,54.7,18.1z"/>
	<path d="M55.9,17.6c0,0,0,0.1,0,0.1c0,0.3,0.2,0.5,0.5,0.5c0.2,0,0.3-0.1,0.5-0.2l0.1,0.2c-0.2,0.1-0.4,0.2-0.6,0.2
	c-0.4,0-0.7-0.3-0.7-0.8c0-0.3,0.1-0.7,0.4-0.9c0.2-0.2,0.4-0.3,0.6-0.3c0.4,0,0.6,0.3,0.6,0.7c0,0.1,0,0.3-0.1,0.4H55.9z
	M56,17.4h1c0-0.1,0-0.1,0-0.2c0-0.2-0.1-0.4-0.4-0.4c-0.2,0-0.3,0.1-0.4,0.2C56.1,17,56,17.2,56,17.4z"/>
</g>
</svg>




